<svg xmlns="http://www.w3.org/2000/svg" data-name="Layer 1" viewBox="0 0 64 64"><path d="M51.82,6.74h-32a5.41,5.41,0,0,0-5.41,5.4v32a5.42,5.42,0,0,0,5.41,5.41h32a5.41,5.41,0,0,0,5.4-5.41v-32A5.4,5.4,0,0,0,51.82,6.74Zm-24,37.83c1.72-4.19,4.89-6.92,8.3-6.92s6.6,2.73,8.31,6.92Zm24.45-.41a.4.4,0,0,1-.4.41H49.67c-2.18-7.11-7.56-11.92-13.6-11.92S24.65,37.37,22.46,44.57H19.8a.41.41,0,0,1-.41-.41v-32a.41.41,0,0,1,.41-.4h32a.4.4,0,0,1,.4.4ZM46.7,54.76a2.5,2.5,0,0,1-2.5,2.5H18.59A11.83,11.83,0,0,1,6.78,45.45V19.84a2.5,2.5,0,0,1,5,0V45.45a6.81,6.81,0,0,0,6.81,6.81H44.2A2.5,2.5,0,0,1,46.7,54.76ZM36.07,13.31A8.67,8.67,0,1,0,44.74,22,8.68,8.68,0,0,0,36.07,13.31Zm0,12.34A3.67,3.67,0,1,1,39.74,22,3.67,3.67,0,0,1,36.07,25.65Z"/></svg>